<svg xmlns="http://www.w3.org/2000/svg" xmlns:xlink="http://www.w3.org/1999/xlink" version="1.1" id="Livello_1" x="0px" y="0px" viewBox="0 0 230.02 37.53" style="enable-background:new 0 0 230.02 37.53;" xml:space="preserve"><g><g><path d="M142.85,0.36c-16.31,0-29.54,8.22-29.54,18.37c0,10.15,13.23,18.37,29.54,18.37c16.32,0,29.54-8.22,29.54-18.37    C172.39,8.58,159.16,0.36,142.85,0.36z M142.87,31.93c-9.08,0-16.45-5.89-16.45-13.16c0-7.27,7.36-13.16,16.45-13.16    s16.45,5.89,16.45,13.16C159.32,26.04,151.96,31.93,142.87,31.93z"/><path d="M56.78,16.1H27.87c-0.75,0-1.3,0.64-1.3,1.34v2.6c0,0.7,0.55,1.34,1.3,1.34l16.98-0.01c0.49,0,0.91,0.4,0.91,0.93    c0,0.16-0.1,0.44-0.1,0.44c-1.94,5.33-7.89,9.72-15.99,9.72c-9.1,0-16.22-6.44-16.22-13.69c0-7.25,7.12-13.62,16.82-13.62    c6.56,0,10.13,3.08,12.89,5.04c0.23,0.16,0.71,0.66,1.57,0.66c8.71,0,8.71,0,12.15,0c0.52,0,0.93-0.42,0.93-0.95    c0-0.62-0.66-1.08-1.07-1.46C53.32,5.2,44.05,0.36,33.54,0.36c-0.47,0-2.8,0-3.29,0c-16.52,0-29.91,8.22-29.91,18.37    c0,10.15,12.97,18.37,29.49,18.37c16.52,0,29.59-8.22,29.59-18.37C59.42,17.31,58.28,16.1,56.78,16.1z"/><path d="M207.41,18.67c0-0.53,0.28-1.04,0.91-1.46l20.93-13.69c0.39-0.23,0.48-0.6,0.48-0.88c0-0.62-0.48-1.02-1.05-1.02h-15.64    c-0.72,0-1.71,0.44-2.2,0.98l-9.02,10.05c-0.46,0.52-1.03,0.79-1.66,0.79c-0.61,0-1.2-0.28-1.66-0.79L189.49,2.6    c-0.48-0.54-1.47-0.98-2.2-0.98h-15.64c-0.58,0-1.06,0.41-1.06,1.02c0,0.28,0.1,0.65,0.48,0.88L192,17.22    c0.63,0.41,0.91,0.93,0.91,1.46c0,0.53-0.28,1.04-0.91,1.46l-20.93,13.69c-0.38,0.23-0.48,0.59-0.48,0.87    c0,0.62,0.48,1.03,1.06,1.03h15.64c0.73,0,1.72-0.44,2.2-0.98l9.02-10.05c0.46-0.52,1.05-0.79,1.66-0.79    c0.62,0,1.2,0.28,1.66,0.79l9.02,10.05c0.48,0.54,1.47,0.98,2.2,0.98h15.64c0.57,0,1.05-0.4,1.05-1.03c0-0.28-0.09-0.65-0.48-0.87    l-20.93-13.69C207.69,19.72,207.41,19.21,207.41,18.67z"/><path d="M110.36,1.63l-42.19,0c-1.44,0-2.63,1.18-2.63,2.62v28.96c0,1.44,1.18,2.62,2.63,2.62h42.19c0.72,0,1.31-0.59,1.31-1.32    v-2.63c0-0.72-0.59-1.31-1.31-1.31H80.04l0,0c-0.72,0-1.31-0.59-1.31-1.31v-6.59c0-0.72,0.59-1.31,1.31-1.31h25.05    c0.72,0,1.31-0.59,1.31-1.31v-2.63c0-0.72-0.59-1.31-1.31-1.31H80.04c-0.72,0-1.31-0.59-1.31-1.31V8.2c0-0.72,0.59-1.31,1.31-1.31    h30.32c0.72,0,1.31-0.59,1.31-1.31V2.94C111.67,2.22,111.08,1.63,110.36,1.63z"/></g></g></svg>